<svg id="Layer_1" data-name="Layer 1" xmlns="http://www.w3.org/2000/svg" xmlns:xlink="http://www.w3.org/1999/xlink" viewBox="0 0 4210 300"><defs><style>.cls-1{fill:#fff;}.cls-1,.cls-4{fill-rule:evenodd;}.cls-2{fill:none;}.cls-3,.cls-4{fill:#8c929b;}.cls-5{clip-path:url(#clip-path);}.cls-6{isolation:isolate;}.cls-7{mask:url(#mask);}</style><clipPath id="clip-path"><rect class="cls-2" x="2414.68" y="104.46" width="419.64" height="91.09"/></clipPath><mask id="mask" x="3833.24" y="41.95" width="308.68" height="216.04" maskUnits="userSpaceOnUse"><g id="b"><path id="a" class="cls-1" d="M3833.58,42h308.33V257.33H3833.58Z"/></g></mask></defs><path class="cls-3" d="M161.09,242.8c-.92,0-1.86,0-2.76,0l19-52.13h26.1a12.79,12.79,0,0,0,11.18-7.8l20.58-56.51a11.74,11.74,0,0,0-11.78-16.82H187.16L156.78,193h0l-17.23,47.33A92.83,92.83,0,0,1,136,60.62l-17.78,48.85h0L88.71,190.63h19.67l25.13-69h14.78l-25.13,69h19.67l23.42-64.35a11.74,11.74,0,0,0-11.77-16.82H137.94l19-52.18c1.39-.06,2.77-.09,4.17-.09a92.8,92.8,0,0,1,0,185.6Zm56.14-121.19H202.47l-20.7,56.79h14.78Z"/><path class="cls-3" d="M3580.25,210.63V222H3582v-4.94h1.93L3587,222h1.93l-3.32-4.94a3.07,3.07,0,0,0,3-3.14v-.08c0-2.24-1.37-3.22-4.08-3.22Zm1.72,1.5h2.36c1.16,0,2.47.19,2.47,1.61,0,1.78-1.33,1.93-2.79,1.93h-2Zm2.14-5.68a9.93,9.93,0,1,0,9.88,10v-.11a9.78,9.78,0,0,0-9.69-9.87Zm0,1.61a8.27,8.27,0,1,1-8.15,8.37v-.11a8.12,8.12,0,0,1,8-8.26Z"/><path class="cls-3" d="M3567.64,122.23H3561v24.44h6.69c8.92,0,16-2.95,16-12.38C3583.67,125.17,3576.57,122.23,3567.64,122.23Z"/><path class="cls-3" d="M3495.61,132.06,3486,162.43a27.81,27.81,0,0,0,9.72,1.72h0a28.63,28.63,0,0,0,9.53-1.64l-9.43-30.45Z"/><path class="cls-3" d="M3382.87,73.7V226.23H3538.7L3691.22,73.7Zm187.91,93.87H3561v29.15h-45l-4.45-13.93a52.67,52.67,0,0,1-32-.14l-4.63,14.08h-27.56l3-8.16-1.11,1a41.57,41.57,0,0,1-26.12,8.77h-1.59a70,70,0,0,1-34.35-9.14l9.37-18.62a42.07,42.07,0,0,0,25.14,7.17,13.4,13.4,0,0,0,9.79-3.09,7.08,7.08,0,0,0,2-4.74c.08-4.84-6.81-7.11-15.24-9.71a71.41,71.41,0,0,1-20.64-9.45,23.78,23.78,0,0,1-10.42-21.18,25.67,25.67,0,0,1,7.27-17.71,41.77,41.77,0,0,1,30.35-11.11h.07a82.08,82.08,0,0,1,34.38,8.15l-10.54,18.37a49.26,49.26,0,0,0-22.23-6c-9.07-.48-13.67,2.76-13.73,6.26-.08,4.27,8.6,8.13,16.75,10.76,12.39,3.93,28.14,9.19,30.54,24.41l22.67-60.33H3509l26.51,72.17V102.37h30.35v0c29,0,42.63,10.34,42.63,32.87C3608.52,155.51,3594.48,167.57,3570.78,167.57Z"/><path class="cls-4" d="M3172.2,80.27a11.1,11.1,0,0,1-.26-15.69c.08-.09.17-.17.26-.26a10.64,10.64,0,0,1,15-.64c.22.2.43.42.64.64Zm-72.26,73.53a11.1,11.1,0,0,1-.28-15.69l.28-.27c4.42-4.52,10.19-4.65,15.8,0Zm57.75-1.33L3173.9,136l-17.5-17.82c-14.25-14.5-10.05-22.2-6.79-25.53a27.26,27.26,0,0,1,5.63-4.52,41.17,41.17,0,0,0,7.84,10.77c17,17.42,35.54,15,49.78.4a52.9,52.9,0,0,0,13.59-20.62l-14-7.84a57.88,57.88,0,0,1-10,14.63c-7.72,8-15.05,8-20,3.85l29.15-29.52-3.66-3.72c-17.14-17.54-33.06-18.49-47.45-3.85a29.5,29.5,0,0,0-6.66,32.57L3143.08,71.9a19.75,19.75,0,0,0-5,4,23.83,23.83,0,0,0-5.48,20.87l-7.2-6.24L3111.2,105l19.58,20c-15.54-13-29.53-12.37-42.45.8s-12.29,29.52-1.44,43.07l-1.83-1.85c-11.63-11.84-22.86-14.38-34-2.94a21.34,21.34,0,0,0-6.93,18.63l-27.43-27.8-16,16.21,53,54.14h32.42l-22.35-22.74c-7.84-7.85-10.21-13.31-5.36-18.22,3.52-3.72,7.58-3.59,12.54,1.46L3098,213.23l16.21-16.49-20.14-20.46c15.93,13.44,33.32,10.11,46.52-3.45a57,57,0,0,0,12.55-17.69l-14.25-8.1a64.59,64.59,0,0,1-8.62,12c-7.85,8-15.16,8-20.1,3.85L3139,133.47l18.68,19Z"/><path class="cls-4" d="M2990.75,224.89l32.52,33.1,32.53-33.1Z"/><g class="cls-5"><path class="cls-3" d="M2462.49,176.22a17.35,17.35,0,0,1-1.38,7.21,17.61,17.61,0,0,1-3.58,5.21,19.44,19.44,0,0,1-8.35,4.92,36.32,36.32,0,0,1-10.46,1.47,32.85,32.85,0,0,1-9.45-1.39,21.21,21.21,0,0,1-8.37-4.74,19.8,19.8,0,0,1-4.45-6,17.48,17.48,0,0,1-1.77-7.85h11.1a9.57,9.57,0,0,0,.88,4.08,11.24,11.24,0,0,0,2.23,3.23,9.53,9.53,0,0,0,4.66,2.57,23.4,23.4,0,0,0,5.34.62,22.87,22.87,0,0,0,5.88-.71,9,9,0,0,0,4.45-2.48,11.66,11.66,0,0,0,1.7-2.31,7.12,7.12,0,0,0,.67-3.4,5.8,5.8,0,0,0-2.12-4.91,11.28,11.28,0,0,0-4.92-2.12,54.88,54.88,0,0,0-6.63-.85,65,65,0,0,1-6.55-.76,22.39,22.39,0,0,1-5.84-1.76,16.6,16.6,0,0,1-4.8-3.33,15.36,15.36,0,0,1-3.27-4.95,16.73,16.73,0,0,1-1.22-6.59,14.46,14.46,0,0,1,1.43-6.47,19.28,19.28,0,0,1,3.78-5.3A20.37,20.37,0,0,1,2429,135a29.72,29.72,0,0,1,19.11-.22,19.63,19.63,0,0,1,7.44,4.32,21.07,21.07,0,0,1,4.33,5.72,16,16,0,0,1,1.72,7h-11.09a8.82,8.82,0,0,0-.8-3.15,10.14,10.14,0,0,0-1.81-2.73,9.34,9.34,0,0,0-4-2.35,16.36,16.36,0,0,0-5.05-.85,20.87,20.87,0,0,0-5.16.67,9.25,9.25,0,0,0-4.5,2.61,8.44,8.44,0,0,0-1.47,2.18,6.85,6.85,0,0,0-.55,2.86,5.86,5.86,0,0,0,1.7,4.5,8.1,8.1,0,0,0,4.37,2c1.9.28,4.05.53,6.43.75s4.55.48,6.51.76a25.13,25.13,0,0,1,6.36,1.81,17.3,17.3,0,0,1,5.21,3.44,15.76,15.76,0,0,1,3.53,5.16,17,17,0,0,1,1.31,6.79"/></g><g class="cls-5"><path class="cls-3" d="M2509.4,194l-4.2-4.71a23.79,23.79,0,0,1-7.94,4.71,27.06,27.06,0,0,1-9,1.51,22.65,22.65,0,0,1-7.56-1.27,19.34,19.34,0,0,1-6.3-3.58,16.91,16.91,0,0,1-4.28-5.67,17.45,17.45,0,0,1-1.6-7.56,15.67,15.67,0,0,1,2.9-9.5,26.84,26.84,0,0,1,7.68-6.87c-.95-1-1.82-2-2.6-3a20.71,20.71,0,0,1-2-3,13.59,13.59,0,0,1-1.76-7,14.41,14.41,0,0,1,10-14.07,19.65,19.65,0,0,1,6.37-1,20.09,20.09,0,0,1,6.25,1,15.85,15.85,0,0,1,5.26,2.86,13.71,13.71,0,0,1,5,10.88,15.09,15.09,0,0,1-.85,5.25,14.71,14.71,0,0,1-2.35,4.2,21.43,21.43,0,0,1-3.57,3.49,40.24,40.24,0,0,1-4.5,3L2504.6,175a10.58,10.58,0,0,0,1-3.33c.2-1.26.35-2.59.47-4s.17-2.66.17-3.95v-3.35h15.37v8.31h-6.87a42.93,42.93,0,0,1-.93,7,18.68,18.68,0,0,1-2.69,6.39l11,11.93Zm-24.12-26.4c-1,.62-1.93,1.21-2.77,1.76a11.41,11.41,0,0,0-2.22,1.94,8.17,8.17,0,0,0-1.51,2.47,8.77,8.77,0,0,0-.55,3.24,9,9,0,0,0,.89,4,8.72,8.72,0,0,0,2.35,2.94,10.35,10.35,0,0,0,3.39,1.76,13.8,13.8,0,0,0,4,.58,19.45,19.45,0,0,0,5.37-.75,9.49,9.49,0,0,0,4.62-2.94Zm10.41-19.39a6.08,6.08,0,0,0-1.9-4.79,6.87,6.87,0,0,0-4.74-1.7,7.37,7.37,0,0,0-4.62,1.56,5.5,5.5,0,0,0-2,4.66,6.71,6.71,0,0,0,.55,2.69,13.05,13.05,0,0,0,1.34,2.39,16.7,16.7,0,0,0,1.81,2.13l1.94,1.93c.89-.5,1.8-1,2.72-1.56a13,13,0,0,0,2.48-1.8,8.17,8.17,0,0,0,1.77-2.36,7.11,7.11,0,0,0,.67-3.15"/></g><g class="cls-5"><path class="cls-3" d="M2574.45,153.45a21.7,21.7,0,0,1-1.35,7.81,16.07,16.07,0,0,1-4,6.05,18,18,0,0,1-6.59,3.91,27.44,27.44,0,0,1-9.08,1.39h-12.6V194h-10.75V134.38h23.36a27.38,27.38,0,0,1,9.07,1.39,18.47,18.47,0,0,1,6.6,3.86,15.92,15.92,0,0,1,4,6,21.69,21.69,0,0,1,1.34,7.81m-10.92.08a9.74,9.74,0,0,0-2.53-7,10.53,10.53,0,0,0-8-2.69h-12.17v19.24H2553a10.57,10.57,0,0,0,8-2.64,9.65,9.65,0,0,0,2.52-6.94"/></g><g class="cls-5"><path class="cls-3" d="M2638.31,193.94l-1.27-6.55a12.09,12.09,0,0,1-2,2.64,13.84,13.84,0,0,1-3.32,2.48,21.42,21.42,0,0,1-4.41,1.81,18.71,18.71,0,0,1-5.21.71,31.57,31.57,0,0,1-9.7-1.43,18.51,18.51,0,0,1-8-5.21,23.56,23.56,0,0,1-3.82-5.12,28.84,28.84,0,0,1-2.36-5.72,35,35,0,0,1-1.22-6.34,68.45,68.45,0,0,1-.33-7c0-2.4.09-4.71.29-6.93a33.25,33.25,0,0,1,1.16-6.25,26.19,26.19,0,0,1,2.35-5.63,24,24,0,0,1,4-5.12,22.51,22.51,0,0,1,8.19-5.21,27.29,27.29,0,0,1,9.54-1.77,26.73,26.73,0,0,1,10.08,1.85,21.93,21.93,0,0,1,7.56,5,22.49,22.49,0,0,1,3.7,5.17,17,17,0,0,1,1.76,6.84h-11.1a7.19,7.19,0,0,0-.93-3,24.08,24.08,0,0,0-1.69-2.44A11.91,11.91,0,0,0,2622,143a14.5,14.5,0,0,0-5.29,1.05,11.59,11.59,0,0,0-4.45,3,12.72,12.72,0,0,0-2.44,3.7,23.42,23.42,0,0,0-1.43,4.41,28.19,28.19,0,0,0-.63,4.67c-.09,1.57-.13,3-.13,4.36s.05,2.82.17,4.41a34.37,34.37,0,0,0,.67,4.75,24.53,24.53,0,0,0,1.43,4.5,12.84,12.84,0,0,0,2.44,3.74,10.62,10.62,0,0,0,4.41,2.85,15.65,15.65,0,0,0,5.25.93,13.22,13.22,0,0,0,5.16-.93,10.81,10.81,0,0,0,3.74-2.51,12,12,0,0,0,3.15-5.34,24.9,24.9,0,0,0,.71-6.26h-14.19v-9h24.7V194Z"/></g><g class="cls-5"><path class="cls-3" d="M2671.57,193.86c-1.07.22-1.84.38-2.31.46a13.77,13.77,0,0,1-2.31.13,13,13,0,0,1-8.66-2.77,11.11,11.11,0,0,1-3.27-9V133.2h10.6v47.72a5.41,5.41,0,0,0,.76,3.07c.5.76,1.65,1.14,3.44,1.14.34,0,.67,0,1,0a4.73,4.73,0,0,1,.75-.05Z"/></g><g class="cls-5"><path class="cls-3" d="M2716.16,172.1a27.64,27.64,0,0,1-1.35,9.29,24.22,24.22,0,0,1-3.78,6.84,18.89,18.89,0,0,1-6.25,4.79,21.22,21.22,0,0,1-18.06,0,19,19,0,0,1-6.27-4.79,24.47,24.47,0,0,1-3.78-6.84,32.84,32.84,0,0,1,0-18.57,24.67,24.67,0,0,1,3.78-6.85,19.1,19.1,0,0,1,6.27-4.79,21.22,21.22,0,0,1,18.06,0A19.16,19.16,0,0,1,2711,156a24.41,24.41,0,0,1,3.78,6.85,27.87,27.87,0,0,1,1.35,9.28m-10.68,0a30.21,30.21,0,0,0-.58-6,10.3,10.3,0,0,0-2.52-5,9.23,9.23,0,0,0-13.28,0,10.34,10.34,0,0,0-2.52,5,31.11,31.11,0,0,0,0,12,10.22,10.22,0,0,0,2.52,5,9.07,9.07,0,0,0,2.77,2,9.73,9.73,0,0,0,7.74,0,9.07,9.07,0,0,0,2.77-2,10.22,10.22,0,0,0,2.52-5,30.31,30.31,0,0,0,.58-6"/></g><g class="cls-5"><path class="cls-3" d="M2764.61,172.18a29.23,29.23,0,0,1-1.94,11,19.24,19.24,0,0,1-5.88,8,16.19,16.19,0,0,1-4.66,2.69,16.71,16.71,0,0,1-5.94,1,17.94,17.94,0,0,1-7-1.38,11.21,11.21,0,0,1-5.3-4.41l-.67,4.79h-9.07V133.28h10.5v20.16a11.12,11.12,0,0,1,4.49-3.06,20.22,20.22,0,0,1,12.95-.3,15,15,0,0,1,4.67,2.61,23.88,23.88,0,0,1,7.81,19.49m-10.67-.16a30.54,30.54,0,0,0-.55-5.64,11.71,11.71,0,0,0-2.23-4.95,10.65,10.65,0,0,0-2.9-2.44,8.13,8.13,0,0,0-4.15-1,8.84,8.84,0,0,0-5,1.31,9.06,9.06,0,0,0-3,3.36,14.22,14.22,0,0,0-1.47,4.54,32.52,32.52,0,0,0-.37,4.83,29.09,29.09,0,0,0,.75,6.51,10.24,10.24,0,0,0,3,5.42,8,8,0,0,0,2.6,1.6,9.66,9.66,0,0,0,3.53.58,8,8,0,0,0,4.16-1,10.73,10.73,0,0,0,2.9-2.43,11.83,11.83,0,0,0,2.22-5,30,30,0,0,0,.55-5.67"/></g><g class="cls-5"><path class="cls-3" d="M2811.26,193.44a21.73,21.73,0,0,1-2.32.89,10.4,10.4,0,0,1-2.89.29,7.19,7.19,0,0,1-5.3-1.85,7,7,0,0,1-2.1-4.28,12.27,12.27,0,0,1-5,4.62,16.83,16.83,0,0,1-8.23,1.93,19,19,0,0,1-6.89-1.13,14.6,14.6,0,0,1-4.92-3,12.57,12.57,0,0,1-3-4.37,13.48,13.48,0,0,1-1-5.17,13,13,0,0,1,1.13-5.55,12.59,12.59,0,0,1,3.15-4.2,14.56,14.56,0,0,1,4.7-2.72,22.15,22.15,0,0,1,5.8-1.23l12.85-.92V164a8,8,0,0,0-1.46-5,7.29,7.29,0,0,0-5.94-1.89,9.21,9.21,0,0,0-5.76,1.6,5.92,5.92,0,0,0-2.22,4.62h-10.19a15.35,15.35,0,0,1,1.73-6.39,12.88,12.88,0,0,1,3.9-4.4,17.39,17.39,0,0,1,5.63-2.55,27.15,27.15,0,0,1,6.89-.85,24.23,24.23,0,0,1,10,2,12,12,0,0,1,6.34,6.93,15.68,15.68,0,0,1,1,4.37c.14,1.51.21,3,.21,4.45v16.22a3.32,3.32,0,0,0,.55,2.12,2.43,2.43,0,0,0,1.89.63,3.16,3.16,0,0,0,.92-.08,1.26,1.26,0,0,0,.43-.08v7.72Zm-14-18.9-11.09.85a8.19,8.19,0,0,0-4.36,1.59,5.23,5.23,0,0,0-.05,8.11,6.85,6.85,0,0,0,4.33,1.47,12.27,12.27,0,0,0,8.06-2.55,9.08,9.08,0,0,0,3.11-7.43Z"/></g><path class="cls-3" d="M2834.32,193.86c-1.06.22-1.84.38-2.31.46a14.92,14.92,0,0,1-2.31.13,13,13,0,0,1-8.66-2.77,11.15,11.15,0,0,1-3.27-9V133.2h10.58v47.72a5.49,5.49,0,0,0,.76,3.07c.51.76,1.65,1.14,3.44,1.14.34,0,.68,0,1,0a4.85,4.85,0,0,1,.76-.05v8.82Z"/><rect class="cls-3" x="2414.68" y="104.46" width="419.64" height="9.67"/><path class="cls-3" d="M2156.15,157.48h13.5v8.81h-23.78V116.4h-10v-8.81h10v-20h10.28V107.3h13.5v8.8h-13.5v41.38Zm-62.52-29.35a14.41,14.41,0,0,1,28.76,0v3.23h-28.76Zm14.09-22.3c-16.14,0-25.24,12.91-25.24,30.82s8.51,30.81,25.24,30.81c12.62,0,23.48-7.63,24.65-20.25H2122.1c-.59,8.22-6.75,11.74-14.09,11.74a13.33,13.33,0,0,1-14.38-12.62h0v-6.75H2133V134C2133,118.45,2124.74,105.83,2107.72,105.83Zm-69.56,1.47h-10.27v59h10.27V132c0-10.27,6.17-17.61,14.68-17.61s11.74,5.28,11.74,13.79v38.16h10.27V127c-.3-15-7.93-21.13-19.37-21.13A17.84,17.84,0,0,0,2037.87,117l.29-9.68Zm-32.87,59h10.27v-59h-10.27Zm-.29-67.8h10.86V87.63H2005Zm-24.07,59h13.5v8.81h-23.77V116.4h-10v-8.81h10v-20h10.27V107.3h13.5v8.8h-13.5ZM1931,130.78c-5.87-1.18-8.22-3.53-8.22-8.22s5-8.22,11.45-8.22,11.44,2.94,11.73,10.57h10.28c-.3-13.21-11.16-19.08-22.31-19.08-12.62,0-21.42,7.34-21.42,16.73s5.57,14.67,15,16.73l9.69,2.05c7.92,1.47,10.57,4.4,10.57,9.1,0,5.87-5.87,9.1-12.62,9.1s-13.21-3.82-13.51-11.74h-10.27c.3,13.21,10.57,20,23.78,20,13.79,0,23.18-7.63,23.18-17.32s-5.57-15-17.31-17.32Zm-64-23.48h-10.57v59h10.27V132c0-10.27,6.16-17.61,14.68-17.61s11.74,5.28,11.74,13.79v38.16h10.27V127c0-15-7.63-21.13-19.08-21.13A17.6,17.6,0,0,0,1867.06,117V107.3Zm-32.88,59H1845V87.63h-10.86Z"/><path class="cls-3" d="M2219.83,86.46l-7.33,7.34,17.9,17.9-17.9,17.9,7.33,7.34,25.24-25.24Zm-29.64,0-7.34,7.34,17.91,17.9-17.91,17.9,7.34,7.34,25.24-25.24Z"/><path class="cls-3" d="M2029.06,190.94c-4.4,0-7,3.52-7,8.22h0c0,5,2.35,8.51,7,8.51s7-3.52,7-8.51S2034.05,190.94,2029.06,190.94Zm0,14.68c-2.93,0-4.4-2.35-4.4-6.17h0c0-3.81,1.47-6.16,4.4-6.16s4.41,2.35,4.41,6.16-1.18,6.17-4.41,6.17Z"/><path class="cls-3" d="M2188.72,190.94a5.69,5.69,0,0,0-5,2.94h0v-2.64h-2.64V213h2.64V205h0a4.78,4.78,0,0,0,4.7,2.64c3.52,0,6.46-2.93,6.46-8.51S2192.25,190.94,2188.72,190.94Zm-.58,14.68h0a4.9,4.9,0,0,1-4.7-5h0v-2.35a4.48,4.48,0,0,1,4.4-5h.3c3.23,0,4.11,2.64,4.11,5.87C2192.54,203.27,2191.07,205.62,2188.14,205.62Z"/><path class="cls-3" d="M2076.61,200c0,3.52-1.47,5.58-4.4,5.58a2.68,2.68,0,0,1-2.35-1.18,5.77,5.77,0,0,1-.59-3.23v-10h-2.64v11.15a4.86,4.86,0,0,0,3.82,5.28h1.17a5.42,5.42,0,0,0,5-3.23h0v2.64h2.64V191.24h-2.64Z"/><path class="cls-3" d="M2240.38,191.24l-3.23,10c-.59,1.47-.88,2.35-.88,2.35h0s-.29-.88-.88-2.35l-3.23-10h-2.64l5.58,15.84-.3.88a3,3,0,0,1-3.23,2.94h-1.46v2.35c.58,0,1.17.29,1.76.29,3.52,0,4.4-1.47,5.87-5l5.87-17Z"/><path class="cls-3" d="M2015.56,203.56h0a8.73,8.73,0,0,0-1.17-2.35l-10.27-17.31h-3.53v23.18h2.65V187.71h0c.29.88.88,1.47,1.17,2.35l10.27,17.32h3.52V184.19h-2.64Z"/><path class="cls-3" d="M1978.88,184.19l-8.22,23.19h2.93l2.35-6.75h9.1l2.35,6.75h2.93l-8.22-23.19Zm-2.06,13.8,2.94-8.22h0a9.78,9.78,0,0,0,.88-2.94h0a18.64,18.64,0,0,0,.88,2.94l2.93,8.22Z"/><path class="cls-3" d="M2058.41,190.94h-1.17a5.55,5.55,0,0,0-5.28,3.23h0a4.45,4.45,0,0,0-4.7-3.23,5.69,5.69,0,0,0-5,2.94h0v-2.64h-2.64v15.84h2.64v-9.39a3.94,3.94,0,0,1,3.52-4.4h.88a2.67,2.67,0,0,1,2.35,1.17,5.79,5.79,0,0,1,.59,3.23v10h2.64V198a4,4,0,0,1,3.52-4.41h.88a2.68,2.68,0,0,1,2.35,1.18,5.77,5.77,0,0,1,.59,3.23v10h2.64V196.81c.59-3.23-1.18-5.57-3.82-5.87Z"/><path class="cls-3" d="M2086,194.46h0v-2.93h-2.64v15.85H2086v-8.81a4.28,4.28,0,0,1,3.82-4.69h1.46v-2.94H2091A5.73,5.73,0,0,0,2086,194.46Z"/><path class="cls-3" d="M2210.15,203.27v-6.46c.59-2.64-1.47-5.28-4.11-5.87h-1.76c-3.82,0-5.87,2.06-5.87,4.7h2.64A2.9,2.9,0,0,1,2204,193h.29c2.35,0,3.23,1.17,3.23,4.11v.58a21.87,21.87,0,0,0-7.63,1.18,4.67,4.67,0,0,0-2.35,4.11,4.74,4.74,0,0,0,4.11,4.69h.88a5.17,5.17,0,0,0,5-2.93h0a2.77,2.77,0,0,0,2.93,2.93h.88v-2.35C2210.15,205,2210.15,204.74,2210.15,203.27Zm-6.75,2h-.59a2.16,2.16,0,0,1-2.64-2h0v-.59a2.64,2.64,0,0,1,.88-2.05,12.16,12.16,0,0,1,6.46-1.18v.3h0c.29,2.93-1.47,5.28-4.11,5.57Z"/><path class="cls-3" d="M2173.17,190.94a6.57,6.57,0,0,0-6.46,3.23h0a4.58,4.58,0,0,0-5-3.23,5.69,5.69,0,0,0-5,2.94h0v-2.64h-2.64v15.84h2.64v-9.39a3.94,3.94,0,0,1,3.52-4.4h.89a2.65,2.65,0,0,1,2.34,1.17,5.79,5.79,0,0,1,.59,3.23v10h2.64V198a4,4,0,0,1,3.52-4.41h.88a2.67,2.67,0,0,1,2.35,1.18,5.77,5.77,0,0,1,.59,3.23v10h2.64V196.81C2177.28,193.58,2175.52,191.24,2173.17,190.94Z"/><path class="cls-3" d="M2143.82,190.94c-4.4,0-7,3.52-7,8.22s2.34,8.51,7,8.51,7-3.52,7-8.51S2148.52,190.94,2143.82,190.94Zm0,14.68c-2.94,0-4.4-2.35-4.4-6.17s1.46-6.16,4.4-6.16,4.4,2.35,4.4,6.16-1.47,6.17-4.4,6.17Z"/><path class="cls-3" d="M2125,205.32h0c-4.7,0-7.34-3.52-7.34-9.68h0c0-5.87,2.64-9.69,7.34-9.69a6,6,0,0,1,5.87,5h2.93a8.38,8.38,0,0,0-8.8-7.34c-5.87,0-10.28,4.41-10.28,12,0,8.22,4.11,12,10.28,12a8.42,8.42,0,0,0,8.8-7.63h-2.93A5.56,5.56,0,0,1,2125,205.32Z"/><path class="cls-3" d="M2223.36,190.94h-1.18a5.69,5.69,0,0,0-5,2.94h0v-2.64h-2.64v15.84h2.64v-9.39a3.79,3.79,0,0,1,3.52-4.4h.88a3.58,3.58,0,0,1,2.65,1.17,5.88,5.88,0,0,1,.58,3.23v9.69h2.64V196.23c0-2.65-1.46-5-4.1-5.29Z"/><path class="cls-3" d="M2105.37,203.27v-6.46c.59-2.64-1.47-5.28-4.11-5.87h-1.76c-3.81,0-5.87,2.06-5.87,4.7h2.64a2.9,2.9,0,0,1,2.94-2.64h.29c2.35,0,3.23,1.17,3.23,4.11v.58a21.91,21.91,0,0,0-7.63,1.18,4.67,4.67,0,0,0-2.35,4.11,4.74,4.74,0,0,0,4.11,4.69h.88a5.16,5.16,0,0,0,5-2.93h0a2.77,2.77,0,0,0,2.94,2.93h.88v-2.35C2105.67,205,2105.37,204.74,2105.37,203.27Zm-6.46,2h-.58a2.15,2.15,0,0,1-2.64-2h0v-.59a2.64,2.64,0,0,1,.88-2.05,15.78,15.78,0,0,1,6.45-1.18v.3h0C2103.32,202.68,2101.56,205,2098.91,205.32Z"/><path class="cls-3" d="M1369.57,175.5a.86.86,0,0,0-1-.52l-.13,0a3.64,3.64,0,0,1-2.82-.25c-.93-.62-1.38-2-1.38-4.29V150c0-8-4.83-12-14.36-12-8.53,0-15.21,4-15.21,9.07a4.52,4.52,0,0,0,4,4.79,5,5,0,0,0,4.13-1.64c2.07-2.17,1.83-4.77-.72-7.56a10.11,10.11,0,0,1,7.21-2.47c5,0,7.06,2.89,7.06,9.68V155c-1.16.35-2.25.69-4.23,1.15a56,56,0,0,0-13.66,4.42,9.27,9.27,0,0,0-5.17,8.69c0,4.27,2.84,9.24,10.83,9.24a16.9,16.9,0,0,0,12.6-6.59c.36,4.67,2.15,6.42,6.5,6.42a12.56,12.56,0,0,0,5.76-1.43,1.13,1.13,0,0,0,.57-1.42Zm-13.21-6.22a11.63,11.63,0,0,1-8.07,5.27,6,6,0,0,1-6.5-5.38,6,6,0,0,1,0-1.41c0-5.11,4-7.47,14.56-10Zm102.42,9.44a19.67,19.67,0,0,1-19.87-19.47c0-.3,0-.59,0-.89a20.26,20.26,0,0,1,19.86-20.6,19.81,19.81,0,0,1,19.78,19.85c0,.14,0,.28,0,.42a20.26,20.26,0,0,1-19.75,20.66Zm-.43-38.79c-4.89,0-10.51,2.08-10.51,18.26,0,12.35,3.69,18.35,11.28,18.35,7.27,0,10.51-5.66,10.51-18.35,0-12.3-3.68-18.28-11.26-18.28Zm-174.6-1.45c0,9.42-2.35,14.6-14.38,14.6H1263V124.62h6.63c12.45,0,14.13,7,14.13,13.84Zm-20.76,32V155.67h5.78a30.28,30.28,0,0,0,19.48-5.34,14.72,14.72,0,0,0,5.45-11.7c0-13.53-13.23-16.36-24.34-16.36h-22.47a.92.92,0,0,0-.92.91v0a1.1,1.1,0,0,0,.73,1c2,.72,7.45-.3,7.45,5.47v40.74c0,3-1.33,5.05-7.42,5.62a.92.92,0,0,0-.85.91v.14a.93.93,0,0,0,.92.91h24.06a.92.92,0,0,0,.92-.91h0V177a.93.93,0,0,0-.86-.91c-6.62-.51-7.94-2.54-7.94-5.63v0Zm48.92-32.77a20,20,0,0,0-19,20.85,18.92,18.92,0,0,0,17.72,20c.42,0,.85,0,1.27,0a18.23,18.23,0,0,0,16.33-9.55.9.9,0,0,0-.25-1.21l-.13-.09a.94.94,0,0,0-1.26.18,13.85,13.85,0,0,1-11.52,6.62c-6.5,0-13.44-4.42-13.44-16.82v-2.08h26.59a.13.13,0,0,0,.14-.13v-.22a15.52,15.52,0,0,0-13.21-17.53,15.73,15.73,0,0,0-3.29-.11Zm-10.1,15.39c.88-8.49,4.23-13.14,9.51-13.14a7.68,7.68,0,0,1,6,2.21,14.8,14.8,0,0,1,2.39,10.93Zm120.33.45h0c-7.27-2-10.1-4-10.1-7.26a6.47,6.47,0,0,1,6.55-6.39,3.44,3.44,0,0,1,.46,0c4.78,0,6.83,2.25,11.87,10.57l.07.1a.16.16,0,0,0,.07.07h.74a.92.92,0,0,0,.93-.91h0V137.87a.27.27,0,0,0-.07-.14h-1a1,1,0,0,0-.71.34l-1.61,1.93a19.29,19.29,0,0,0-8.66-2.27,12.8,12.8,0,0,0-14.12,11.32c0,.35-.06.71-.07,1.07,0,6.84,4.6,9.4,12.54,11.52,7.72,2.08,10.46,4.26,10.46,8.3a7.08,7.08,0,0,1-7.53,6.5c-5.81,0-8.26-2.14-13.84-12l-.06-.12-.07-.07h-.75a.92.92,0,0,0-.93.91V178.5a.13.13,0,0,0,.13.14h1a.93.93,0,0,0,.65-.27l2.55-2.51a22.26,22.26,0,0,0,10.33,2.78,13.75,13.75,0,0,0,10.33-3.93,13.16,13.16,0,0,0,3.33-9.13c0-6.23-3.37-9.5-12.45-12Zm-44,19.69c0,2.08-.52,2.74-3.86,3a.91.91,0,1,0,.06,1.81h16.46a.9.9,0,0,0,0-1.8c-3.81-.18-4.8-.79-4.8-3V149.44c2.71-4.45,4.67-6.78,7.94-7.48a7.16,7.16,0,0,0-.26,1.78,4.93,4.93,0,0,0,9.86,0,5.88,5.88,0,0,0-5.79-6,5.56,5.56,0,0,0-.82,0,13.24,13.24,0,0,0-11.12,7.68v-6.13a1.12,1.12,0,0,0-1.13-1.11h0l-10.38.28a.9.9,0,0,0-.89.91v.13a.89.89,0,0,0,.76.89c3.46.49,3.94,2.11,3.93,3.79Zm113.82-35a.94.94,0,0,1,.64.26.89.89,0,0,1,.29.65l0,6.79a15,15,0,0,1,14.34-8h.09c6.84,0,10.75,4.3,10.75,11.8v23.44c0,2.08.52,2.74,3.86,2.95a.91.91,0,0,1,0,1.82h-14.79a.92.92,0,0,1-.08-1.84c2.69-.23,3.11-.9,3.11-2.93V152c0-7-2-9.71-7.18-9.71a11.17,11.17,0,0,0-8.14,5.53,17.05,17.05,0,0,0-1.9,3.25l.11,22.09c0,2,.42,2.7,3,2.93A.92.92,0,0,1,1496,178h-14.7a.91.91,0,0,1,0-1.82c3.33-.21,3.86-.89,3.86-3V144.26c0-1.69-.48-3.32-3.95-3.81a.9.9,0,0,1-.78-.89v-.13a.94.94,0,0,1,.91-.92Z"/><path class="cls-3" d="M1164.38,210.83a47.46,47.46,0,0,1-23.92-6.3,44.45,44.45,0,0,1-15.62-15.45,64.75,64.75,0,0,1-8.22-21.28,79.39,79.39,0,0,1-1.27-23,62.41,62.41,0,0,1,5.25-20.53,65.84,65.84,0,0,1,9.92-15.41,58.22,58.22,0,0,1,12.72-11,56.65,56.65,0,0,1,30.33-8.75A60.44,60.44,0,0,1,1203.11,97a47.1,47.1,0,0,1,15.7,14.11,48,48,0,0,1,7.85,19.27,61.77,61.77,0,0,1-.45,22.76,86.3,86.3,0,0,1-9.13,24.56,65.35,65.35,0,0,1-22.94,24.36A56.93,56.93,0,0,1,1164.38,210.83Zm1.66-28.59a5.57,5.57,0,0,0-4.44,2.47,5.83,5.83,0,0,0-1,4.3,4.81,4.81,0,0,0,1,2.39,5.39,5.39,0,0,0,2.64,1.55,7.49,7.49,0,0,0,2,.28,6.06,6.06,0,0,0,3.81-1.25,4.82,4.82,0,0,0,1.82-3.84,5.9,5.9,0,0,0-2.32-4.59,6.13,6.13,0,0,0-2.6-1.2,4.52,4.52,0,0,0-.9-.11Zm-6.74-45.75h0c-.08.1.12,9.58.34,18.36s.52,18.39.58,18.76l.07.85a3.71,3.71,0,0,0,3.44,3.59h.4a12.45,12.45,0,0,0,3.16-.47,7.47,7.47,0,0,0,3.83-2.23,4.3,4.3,0,0,0,1-2.11c.13-.67.37-4.86.44-6.23a45.33,45.33,0,0,0,22.28-5.26,29.63,29.63,0,0,0,9.29-8.57,24.69,24.69,0,0,0,4.21-10.79,25.32,25.32,0,0,0-5.8-20.21l-.08-.07a32.67,32.67,0,0,0-15-9.47,50.18,50.18,0,0,0-14.77-1.94c-.71,0-1.43,0-2.22,0a48.06,48.06,0,0,0-22,6.23,40.52,40.52,0,0,0-11.08,9,7.21,7.21,0,0,0-2,6.72,3.06,3.06,0,0,0,3.05,1.67,4,4,0,0,0,2.26-.62c.63-.47,1.29-1.08,2-1.73s1.35-1.24,2.14-1.88a39.09,39.09,0,0,1,29-9.78,26,26,0,0,1,17.41,5.71,16,16,0,0,1,6,12,18.46,18.46,0,0,1-11.54,17.71,30.15,30.15,0,0,1-12.77,3.44c.36-7.94.56-15.67.56-15.74,0-.95,0-1.87.09-2.76h0c.2-4.42.36-7.91-2.94-8.56a14.62,14.62,0,0,0-3-.27c-3.8,0-8.3,1.23-8.38,4.67Z"/><rect class="cls-3" x="1545.47" y="123.53" width="2.59" height="56.77"/><g class="cls-6"><g class="cls-6"><path class="cls-3" d="M1596.93,137.7h6.91l-14.27,40.75h-7l-14.22-40.75h6.86l8.5,25.33q.68,1.82,1.42,4.67c.51,1.91.83,3.32,1,4.25q.36-2.12,1.11-4.9c.51-1.86.91-3.24,1.23-4.13Z"/></g><g class="cls-6"><path class="cls-3" d="M1640,137.7v26.37a15.55,15.55,0,0,1-1.94,7.9,12.75,12.75,0,0,1-5.6,5.21,19.4,19.4,0,0,1-8.76,1.83q-7.59,0-11.79-4t-4.21-11V137.7h6.69v25.78c0,3.36.78,5.85,2.34,7.44s4,2.4,7.19,2.4q9.42,0,9.42-9.89V137.7Z"/></g><g class="cls-6"><path class="cls-3" d="M1670.65,178.45h-23.06V137.7h23.06v5.63h-16.39v11.09h15.35V160h-15.35v12.79h16.39Z"/></g></g><g id="COLOR"><g id="logo-western-color"><path class="cls-3" d="M790.47,149.25h-.17l-7.41,22.65h15.25Zm8,23.87h-16l-3.05,9.5a17,17,0,0,0-1.13,4.61c0,1.05.87,1.92,3.31,1.92h3.92v1.22H770.09v-1.22h2.35c2.26,0,3.31-.17,4.7-4.36l16.12-48.26h.87l18.12,52.71h6.18v1.22H796.48v-1.22h7.41Z"/><path class="cls-3" d="M820.87,176.87h.87c0,9.06,5.41,13.32,11.76,13.32,5.14,0,8.89-3.31,8.89-8.1,0-5.66-3-7.31-9.15-8.18-8.45-1.31-12.45-2.79-12.45-11.85,0-6.1,4-10.54,10.1-10.54,5.58,0,7.67,3.31,9.5,3.31,1.22,0,1.39-1.31,1.56-2h.88v11.33H842c-.52-6.1-3.83-11.67-11.06-11.67-4.62,0-7.75,3-7.75,8,0,4.88,1.83,5.92,10.8,7.49,7.84,1.4,11.15,4,11.15,10.89,0,7.06-3.92,12.28-11.67,12.28-5.4,0-8.19-2.78-10.19-2.78-1.31,0-1.31,1.3-1.31,2.26h-.87l-.18-13.76Z"/><path class="cls-3" d="M850,176.87h.87c0,9.06,5.4,13.32,11.85,13.32,5.14,0,8.88-3.31,8.88-8.1,0-5.66-3-7.31-9.15-8.18C854,172.6,850,171.12,850,162.06c0-6.1,4-10.54,10.1-10.54,5.58,0,7.67,3.31,9.5,3.31,1.22,0,1.39-1.31,1.57-2H872v11.33h-.87c-.53-6.1-3.84-11.67-11.07-11.67-4.61,0-7.75,3-7.75,8,0,4.88,1.83,5.92,10.8,7.49,7.84,1.4,11.06,4,11.06,10.89,0,7.06-3.92,12.28-11.67,12.28-5.4,0-8.19-2.78-10.19-2.78-1.22,0-1.31,1.3-1.31,2.26h-.87L850,176.87Z"/><path class="cls-3" d="M881.85,153.09h-4.7v-.88h28.74l.61,9.15h-.87c0-6.18-4.09-8.27-9.84-8.27h-8.45v17.33h4c5.66,0,6.09-3.4,6.09-6.88h.87v14.37h-.87c0-4.09-.52-6.53-6.18-6.53h-4v18h7.41c8.71,0,13-1,13-10.19h.87v11.06H877.06v-.87h4.7l.09-36.32Z"/><path class="cls-3" d="M926.54,153.09h-1.13c-9.59,0-11.76,1.48-11.76,10.27h-.88V152.21h33v11.15h-.87c0-8.79-2.18-10.27-11.67-10.27H932v36.15h5.57v.87H921.05v-.87h5.58V153.09Z"/><path class="cls-3" d="M539,154.22h.18l3.4-9.67a8.93,8.93,0,0,0,.69-3.05c0-.87-.26-1.92-3-1.92H534ZM507.1,139.67h-5.31v-1.22h17.33v1.22h-4l14.19,41.47h.18l5.66-15.77-8.88-25.79h-4.53v-1.22h30.48v1.22h-2c-3,0-4.79.7-5.92,4.1l-4.45,12.19L548.13,181h.09l12.89-36a9.71,9.71,0,0,0,.87-3.39c0-1.14-.78-2.09-3.31-2.09h-2.18v-1.22h13.33v1.22h-.7c-3.92,0-5.31,1.65-6.53,5.05l-17.25,48.26h-1l-8.45-25.44h-.08L526.7,193h-1Z"/><path class="cls-3" d="M568.51,154h-4.7v-.87h28.75l.61,9.15h-.87c0-6.19-4.1-8.28-9.85-8.28H574v17.34h4c5.66,0,6.1-3.4,6.1-6.88H585v14.37h-.87c0-4.09-.53-6.53-6.19-6.53h-4v18h7.41c8.71,0,13-1.05,13-10.19h.87v11.06H563.81v-.87h4.7Z"/><path class="cls-3" d="M599.61,177.83h.87c0,9,5.4,13.32,11.85,13.32,5.14,0,8.89-3.31,8.89-8.1,0-5.66-3-7.32-9.15-8.27-8.45-1.31-12.46-2.7-12.46-11.85,0-6.1,4-10.63,10.11-10.63,5.57,0,7.66,3.31,9.49,3.31,1.22,0,1.4-1.3,1.57-2h.87v11.32h-.87c-.52-6.09-3.83-11.67-11.06-11.67-4.62,0-7.76,3-7.76,8,0,4.88,1.83,5.93,10.81,7.5,7.84,1.39,11.15,4,11.15,10.88,0,7.06-3.92,12.37-11.68,12.37-5.4,0-8.18-2.78-10.19-2.78-1.22,0-1.31,1.3-1.31,2.26h-.87V177.83Z"/><path class="cls-3" d="M639.68,154h-1.13c-9.58,0-11.76,1.48-11.76,10.28h-.87V153.17h33v11.15h-.87c0-8.8-2.17-10.28-11.67-10.28h-1.22v36.15h5.58v.88H634.11v-.88h5.57V154Z"/><path class="cls-3" d="M663.9,154h-4.7v-.87h28.74l.61,9.15h-.87c0-6.19-4.09-8.28-9.84-8.28h-8.45v17.34h4c5.57,0,6.09-3.4,6.09-6.88h.87v14.37h-.87c0-4.09-.52-6.53-6.18-6.53h-4v18h7.41c8.79,0,13-1.05,13-10.19h.88v11.06H659.11v-.87h4.7L663.9,154Z"/><path class="cls-3" d="M704.32,171.2H707c6.36,0,10.1-2.26,10.1-8.44,0-4.36-1.48-8.72-9.14-8.72h-3.66V171.2ZM698.83,154h-5.4v-.87H710c6.19,0,13,1.4,13,9.5,0,6.53-7.58,8.27-11.58,8.8v.17c6.18.52,9.49,1.92,10.27,9l.79,6.54c.35,3.22,1.91,3.39,2.79,3.39a7.39,7.39,0,0,0,2.26-.52l.35.7a12,12,0,0,1-4.44.69c-6.54,0-7-3.48-7.76-9.66l-.34-3.23c-.35-3.4-1.31-6.44-7.41-6.44h-3.48v18.2h5.48v.87H693.52v-.87h5.4L698.83,154Z"/><path class="cls-3" d="M732.54,155.79h-.17v31.36c0,2.61.87,3,3.31,3h2.18v.88H726.27v-.88h1.83c2.53,0,3.31-.52,3.31-3V154h-5.14v-.87H737.6L758,181.31h.17V156.92c0-2.27-.43-3-2.78-3h-2.44v-.87h11.23V154h-2.35c-2.35,0-2.79.69-2.79,3v34.49h-.69Z"/><path class="cls-3" d="M483.49,101.78c8.28,0,15.07-3,15.07-6s-6.88-6-15.15-6-15.07,3-15.07,6c.08,2.87,6.88,6,15.15,6"/><path class="cls-3" d="M500.57,95.07c7.92,2.27,19.16,7.84,25.26,14.46-.52,2.61-2.18,4.36-4.7,6.36-1.75-3.14-12.29-13.76-20.91-18.47.43-.61.35-.17.35-2.35"/><path class="cls-3" d="M499.35,98.9c5.57,2.62,15.68,11.41,20.56,18-3.92,3-12,5.58-14.2,6-1.31-4-9.15-19.08-11.24-21.17a11.61,11.61,0,0,0,4.88-2.88"/><path class="cls-3" d="M484,103.52v22c2.44.52,14.37-.87,19.77-2.27-1-3.39-8.36-18.11-11.24-20.9-2.17.87-6.62,1.13-8.53,1.13"/><path class="cls-3" d="M465.46,95c-7.92,2.27-19.16,7.84-25.26,14.46.52,2.62,2.18,4.36,4.7,6.36,1.75-3.13,12.29-13.76,20.91-18.46-.35-.7-.35-.27-.35-2.36"/><path class="cls-3" d="M466.77,98.73c-5.58,2.61-15.59,11.41-20.56,18,3.92,3,12,5.58,14.2,6,1.31-4,9.15-19.08,11.24-21.17a9.92,9.92,0,0,1-4.88-2.87"/><path class="cls-3" d="M482,103.43v22c-2.44.52-14.28-.78-19.68-2.26.95-3.49,8.36-18.12,11.23-20.91,2.09.87,6.54,1,8.45,1.13"/><path class="cls-3" d="M522.52,117.46c1.57-.79,4.44-4.36,5.05-6.36,3.31,2.61,12.28,15,14.64,25.43h-9.06c-1.31-4.44-7.84-15.94-10.63-19.07"/><path class="cls-3" d="M531.14,136.62H510.32a117.48,117.48,0,0,0-3.92-11.93c2.7-.44,11.94-3.84,14.64-6.27,2.53,3.31,9.06,13.76,10.1,18.2"/><path class="cls-3" d="M508.23,137h-8.1v4.7h5.75l4.71,13.51c-6.71,1.91-24.4,3-26.49,3v-30.4c3.23.43,17.69-1.22,20.3-2.27,1.13,2.7,3.14,7.06,3.83,11.5"/><path class="cls-3" d="M514.94,167.81l5,14.54a54.91,54.91,0,0,1-5.66,1.66,100.09,100.09,0,0,0,.61-16.2"/><path class="cls-3" d="M513.81,186.1c.52-.09,6.71-1.92,6.71-1.92.69,2.44,3.05,9.24,3.05,9.24-3,4-12.72,9.93-18,12,4.53-4.7,8-15.59,8.19-19.34"/><path class="cls-3" d="M484.1,189.59v20.55c18.3.35,24.31-6.18,27.88-23.78-9.23,2.53-23.43,3.23-27.88,3.23"/><path class="cls-3" d="M481.93,189.67v20.56c-18.21.35-24.31-6.18-27.88-23.78,9.23,2.44,23.43,3.14,27.88,3.22"/><path class="cls-3" d="M454.23,154.83c4,1.91,25.78,3.4,27.78,3.31v-30.4c-3.22.43-17.68-1.22-20.29-2.27-1.66,3.57-7.06,20.65-7.49,29.36"/><path class="cls-3" d="M482,160.23v27.44c-12.28,0-26.83-2.61-28.13-3.22-1.22-4.8-1.31-17.25,0-27.53,6.18,2,27.52,3.66,28.13,3.31"/><path class="cls-3" d="M443.6,117.63a15.23,15.23,0,0,1-5.05-6.36c-3.32,2.62-12.72,15.77-14.64,25.44.35,1.48,3.75,6.62,6.45,7.84,1.48-6.45,7.23-19.78,13.24-26.92"/><path class="cls-3" d="M432.1,145.68c5.31,4,13.68,7.14,19.95,8.54.87-6,4.44-22.3,7.66-29.36-2.7-.43-11.93-3.83-14.63-6.27-3,3.48-12.11,19.16-13,27.09"/><path class="cls-3" d="M452.05,186c-.53-.08-16.12-5-19.86-8.27,7.23,16.46,21.6,25.43,28.74,28.48-4.7-4.18-8.71-16.55-8.88-20.21"/><path class="cls-3" d="M451.7,156.48c-1,7.15-1.22,22,.09,27.27-4.71-.52-18.65-6.71-20-8.63-2.09-6-2.44-18.9-.17-27.17,4.18,3.22,12.45,6.7,20.12,8.53"/><path class="cls-3" d="M484.1,160.23v27.44c12.29,0,26.83-2.61,28.14-3.22,1.22-5.23.87-20.13.52-22,0,0-.87-3-1.65-5.14-5.66,1.75-26.4,3.23-27,2.88"/><path class="cls-3" d="M423.39,139.93c-.79-1.57,4.79,6.54,6.71,7a61.33,61.33,0,0,0-.27,27.53c-3.22-5.58-7.84-16.2-6.44-34.5"/></g></g><g class="cls-7"><path class="cls-4" d="M3961.6,65.53a54.1,54.1,0,0,1,39.11-16.78c20.41,0,38.09,11.34,47.61,28.23a65.85,65.85,0,0,1,26.87-5.73c36.73,0,66.54,30,66.54,67.11s-29.81,67.11-66.54,67.11a67.33,67.33,0,0,1-13.15-1.3,48.59,48.59,0,0,1-63.71,20,55.43,55.43,0,0,1-103-2.49,51.59,51.59,0,0,1-10.59,1.1c-28.45,0-51.46-23.35-51.46-52A52.29,52.29,0,0,1,3859,125.67a59.92,59.92,0,0,1,102.65-60.08"/></g><path class="cls-1" d="M3878.17,154c-.19.51.07.61.13.7a19.11,19.11,0,0,0,1.76,1.06,18.81,18.81,0,0,0,9.23,2.16c6.32,0,10.26-3.37,10.26-8.79V149c0-5-4.45-6.84-8.6-8.14l-.54-.18c-3.14-1-5.85-1.9-5.85-4v-.1c0-1.77,1.59-3.07,4-3.07a18.18,18.18,0,0,1,8,2s.62.4.84-.2c.12-.32,1.18-3.15,1.29-3.47a.59.59,0,0,0-.3-.71,17.93,17.93,0,0,0-9.07-2.44h-.63c-5.8,0-9.84,3.5-9.84,8.51v.11c0,5.28,4.46,7,8.64,8.19l.67.21c3,.94,5.66,1.75,5.66,3.88v.11c0,2-1.71,3.42-4.45,3.42a14.92,14.92,0,0,1-8.15-2.35c-.45-.26-.7-.44-1-.65-.19-.11-.64-.31-.84.28l-1.24,3.47m92.61,0c-.19.51.07.61.14.7a20,20,0,0,0,1.75,1.07,18.9,18.9,0,0,0,9.23,2.15c6.33,0,10.26-3.37,10.26-8.79V149c0-5-4.43-6.84-8.59-8.14l-.55-.18c-3.14-1-5.85-1.9-5.85-4v-.1c0-1.77,1.59-3.07,4-3.07a18.29,18.29,0,0,1,8,2.05s.61.4.84-.2c.12-.32,1.17-3.15,1.28-3.47a.58.58,0,0,0-.31-.71,17.93,17.93,0,0,0-9.07-2.43h-.63c-5.79,0-9.84,3.5-9.84,8.51v.11c0,5.28,4.47,7,8.64,8.19l.67.21c3.05.94,5.67,1.75,5.67,3.88v.11c0,2-1.72,3.42-4.46,3.42a14.9,14.9,0,0,1-8.15-2.35c-.45-.26-.71-.44-1-.65a.54.54,0,0,0-.84.28l-1.24,3.47M4034,143.32a13.11,13.11,0,0,1-1.69,7.19,6.52,6.52,0,0,1-10.27,0,13.28,13.28,0,0,1-1.66-7.19,13.11,13.11,0,0,1,1.66-7.15,5.62,5.62,0,0,1,5.13-2.48,5.69,5.69,0,0,1,5.14,2.48,12.84,12.84,0,0,1,1.69,7.15m5.28-5.68a12.73,12.73,0,0,0-2.4-4.59,11.58,11.58,0,0,0-4.06-3.08,13.18,13.18,0,0,0-5.66-1.14,13.37,13.37,0,0,0-5.67,1.14,11.67,11.67,0,0,0-4.06,3.08,12.73,12.73,0,0,0-2.4,4.59,21.07,21.07,0,0,0,0,11.36,12.5,12.5,0,0,0,2.4,4.59,11.39,11.39,0,0,0,4.06,3.06,15,15,0,0,0,11.32,0,11.39,11.39,0,0,0,4.06-3.06,12.65,12.65,0,0,0,2.4-4.59,21.07,21.07,0,0,0,0-11.36m43.42,14.51a.5.5,0,0,0-.67-.32,11.46,11.46,0,0,1-2.46.7,18.64,18.64,0,0,1-2.9.21,8.05,8.05,0,0,1-6-2.26c-1.46-1.51-2.28-3.94-2.26-7.23a11.23,11.23,0,0,1,2-7,6.93,6.93,0,0,1,5.87-2.58,17.57,17.57,0,0,1,5.58.8s.42.18.62-.37c.46-1.28.8-2.2,1.3-3.6a.47.47,0,0,0-.33-.62,19.75,19.75,0,0,0-3.53-.89,25.75,25.75,0,0,0-4-.27,14.43,14.43,0,0,0-5.89,1.13,12.25,12.25,0,0,0-4.25,3.09,13.13,13.13,0,0,0-2.57,4.59,18.29,18.29,0,0,0-.86,5.69c0,4.37,1.18,7.92,3.51,10.52s5.85,3.92,10.43,3.92a21.38,21.38,0,0,0,7.48-1.34.48.48,0,0,0,.22-.62l-1.31-3.59m9.24-11.79a10.4,10.4,0,0,1,1.45-4.21,5.7,5.7,0,0,1,5.12-2.6,5.54,5.54,0,0,1,5,2.6,8.8,8.8,0,0,1,1.18,4.21H4092Zm17.8-3.74a11.1,11.1,0,0,0-2.29-4.18,10.34,10.34,0,0,0-3.4-2.58,12.88,12.88,0,0,0-5.12-1A14,14,0,0,0,4093,130a11.87,11.87,0,0,0-4.12,3.14,13,13,0,0,0-2.42,4.65,20.13,20.13,0,0,0-.79,5.7,19.17,19.17,0,0,0,.82,5.71,11.66,11.66,0,0,0,2.59,4.55,11.83,11.83,0,0,0,4.5,3,17.82,17.82,0,0,0,6.5,1.05c5.17,0,7.89-1.17,9-1.79.2-.11.38-.3.15-.85l-1.17-3.28a.51.51,0,0,0-.67-.31,17,17,0,0,1-7.35,1.32,8.47,8.47,0,0,1-6.12-2.1c-1.31-1.32-2-3.24-2.07-6l17.91,0a.53.53,0,0,0,.52-.47,19.09,19.09,0,0,0-.54-7.69Zm-161,3.74a10.25,10.25,0,0,1,1.45-4.21,5.7,5.7,0,0,1,5.11-2.6,5.53,5.53,0,0,1,5,2.6,8.69,8.69,0,0,1,1.18,4.21h-12.75Zm17.8-3.74a11.24,11.24,0,0,0-2.29-4.18,10.34,10.34,0,0,0-3.4-2.58,12.93,12.93,0,0,0-5.13-1,14,14,0,0,0-5.9,1.14,11.77,11.77,0,0,0-4.12,3.14,13,13,0,0,0-2.42,4.65,20.13,20.13,0,0,0-.79,5.7,19.17,19.17,0,0,0,.82,5.71,11.41,11.41,0,0,0,7.08,7.53,17.79,17.79,0,0,0,6.5,1.05c5.17,0,7.89-1.17,9-1.79.19-.11.38-.3.15-.85l-1.17-3.28a.51.51,0,0,0-.67-.31,17,17,0,0,1-7.35,1.32,8.47,8.47,0,0,1-6.12-2.1c-1.32-1.32-2-3.24-2.08-6l17.92,0a.53.53,0,0,0,.52-.47,19.3,19.3,0,0,0-.54-7.69Zm-56.45,15.42a3.59,3.59,0,0,1-1-1.06,4.34,4.34,0,0,1-.53-2.33,3.9,3.9,0,0,1,1.6-3.45s1.54-1.34,5.19-1.3a35.94,35.94,0,0,1,4.85.42v8.13h0a35.69,35.69,0,0,1-4.83.64c-3.64.22-5.25-1-5.23-1Zm7.11-12.58c-.72-.06-1.66-.08-2.78-.08a17.06,17.06,0,0,0-4.4.56,11.34,11.34,0,0,0-3.73,1.74,8.28,8.28,0,0,0-3.55,7.07,9.36,9.36,0,0,0,.81,4.08,7.47,7.47,0,0,0,2.34,2.8,9.84,9.84,0,0,0,3.64,1.58,21.41,21.41,0,0,0,4.74.48,32.62,32.62,0,0,0,5.43-.45c1.5-.26,3-.55,4.5-.88l1.26-.32a.55.55,0,0,0,.4-.58V139.15c0-3.59-.95-6.25-2.84-7.89s-4.64-2.48-8.21-2.48a29.33,29.33,0,0,0-4.79.45s-3.9.75-5.51,2a.55.55,0,0,0-.16.71l1.27,3.41a.45.45,0,0,0,.58.29l.3-.15a18.16,18.16,0,0,1,7.78-1.82,7.24,7.24,0,0,1,4.42,1.16c1,.75,1.48,1.88,1.48,4.26v.76c-1.53-.22-2.95-.35-2.95-.35Zm144-9.22a.49.49,0,0,0-.25-.64h0a15,15,0,0,0-3-.51,9,9,0,0,0-4.62.74,8,8,0,0,0-3,2.23V129.9a.52.52,0,0,0-.52-.54h-4.58a.52.52,0,0,0-.51.54v26.64a.55.55,0,0,0,.54.54h4.7a.54.54,0,0,0,.54-.54V143.16a15.77,15.77,0,0,1,.59-4.69,6.83,6.83,0,0,1,1.56-2.63,5.37,5.37,0,0,1,2.22-1.33,8.86,8.86,0,0,1,2.4-.34,10.11,10.11,0,0,1,2,.24.6.6,0,0,0,.65-.48c.31-.82,1.18-3.27,1.35-3.75"/><path class="cls-1" d="M4017.38,118a13.39,13.39,0,0,0-1.77-.42,13.2,13.2,0,0,0-2.43-.19c-3.23,0-5.78.91-7.57,2.72s-3,4.52-3.6,8.11l-.22,1.21h-4.06a.59.59,0,0,0-.59.52l-.67,3.72c0,.35.11.57.58.57H4001l-4,22.38a27.17,27.17,0,0,1-1.07,4.41,9,9,0,0,1-1.24,2.54,3.3,3.3,0,0,1-1.64,1.27,6.6,6.6,0,0,1-2.11.3,7.73,7.73,0,0,1-1.43-.16,4.17,4.17,0,0,1-1-.31.49.49,0,0,0-.65.29c-.15.38-1.2,3.27-1.33,3.63a.54.54,0,0,0,.28.72,15.32,15.32,0,0,0,1.63.47,10.58,10.58,0,0,0,2.62.25,13,13,0,0,0,4.39-.68,8.24,8.24,0,0,0,3.31-2.31,11.92,11.92,0,0,0,2.32-4,34.12,34.12,0,0,0,1.57-6l4-22.8h5.89a.6.6,0,0,0,.6-.52l.67-3.72c0-.35-.11-.57-.59-.57h-5.71a22.91,22.91,0,0,1,.94-4,5.24,5.24,0,0,1,1.25-1.9,3.74,3.74,0,0,1,1.5-.94,6.23,6.23,0,0,1,1.92-.27,7,7,0,0,1,1.47.15,9.19,9.19,0,0,1,.91.22c.59.18.66,0,.78-.28l1.37-3.75a.48.48,0,0,0-.33-.62m-79.89,38.67a.51.51,0,0,1-.51.54h-4.75a.51.51,0,0,1-.51-.54V118.46a.51.51,0,0,1,.51-.53H3937a.51.51,0,0,1,.51.53v38.17"/></svg>